<svg width="216" height="216" viewBox="0 0 216 216" fill="none" xmlns="http://www.w3.org/2000/svg">
<path d="M102.946 206.829C125.055 206.829 142.979 196.481 142.979 183.717C142.979 170.952 125.055 160.605 102.946 160.605C80.8357 160.605 62.9121 170.952 62.9121 183.717C62.9121 196.481 80.8357 206.829 102.946 206.829Z" fill="#F0F0F0"/>
<path d="M73.5692 123.82C75.0294 126.844 74.8047 130.68 75.1071 133.972C75.4648 137.404 76.0976 140.801 76.9993 144.132C78.8137 151.221 81.1681 158.349 81.842 165.672C82.2006 169.56 81.7254 173.301 81.302 177.172C81.302 177.258 81.4575 177.414 81.4964 177.28C83.5484 170.337 82.0926 162.799 80.4985 155.939C78.8439 148.841 76.3513 141.869 75.6082 134.585C75.4052 132.555 75.2756 130.516 75.0466 128.485C74.8566 126.831 74.6665 125.154 73.7506 123.733C73.6729 123.608 73.5001 123.69 73.5692 123.828V123.82Z" fill="#E0E0E0"/>
<path d="M72.347 125.28C72.9907 125.561 73.9065 126.511 73.2326 127.258C72.9883 127.46 72.6851 127.577 72.3686 127.591C72.1397 127.591 72.1397 127.621 72.3686 127.725L72.4334 128.239C71.5305 128.572 71.1374 129.181 71.2454 130.071C71.0442 130.321 70.7981 130.532 70.5197 130.693C70.4376 130.758 70.5197 130.948 70.619 130.896C71.3707 130.524 72.3816 129.552 71.5608 128.71C71.3059 128.451 70.619 128.217 70.4592 128.71C70.2129 129.431 71.5781 129.574 71.9798 129.47C72.8438 129.254 73.0037 128.269 72.7185 127.518C72.4766 126.883 71.5867 126.222 70.9387 126.844C70.5067 127.241 70.8523 127.708 71.3318 127.889C72.1656 128.23 73.5739 127.971 73.8374 126.999C74.1009 126.027 73.2326 125.271 72.36 125.072C72.2261 125.042 72.2865 125.258 72.36 125.293L72.347 125.28Z" fill="#E0E0E0"/>
<path d="M61.0933 110.842C61.8968 113.115 62.4844 115.46 63.2533 117.754C63.9445 119.772 64.9208 121.677 65.6768 123.673C67.3573 128.14 68.1436 132.81 69.0767 137.471C69.4893 139.793 70.0668 142.082 70.8047 144.322C71.5462 146.314 72.4016 148.261 73.3664 150.154C75.332 154.172 77.3365 158.22 78.8312 162.44C79.6693 164.804 80.2568 167.244 80.8789 169.672C81.6387 172.384 82.1008 175.171 82.257 177.984C82.257 178.105 82.4644 178.23 82.473 178.062C82.6199 175.599 82.1663 173.197 81.609 170.813C81.0776 168.609 80.5463 166.385 79.881 164.216C78.5548 159.926 76.5892 155.84 74.6452 151.805C73.6645 149.77 72.632 147.761 71.7853 145.666C70.9685 143.578 70.3368 141.423 69.8975 139.225C68.8996 134.615 68.2602 129.915 66.7568 125.427C65.936 122.977 64.7653 120.675 63.8754 118.273C62.9855 115.871 62.3677 113.231 61.2834 110.825C61.2272 110.7 61.0458 110.7 61.102 110.855L61.0933 110.842Z" fill="#E0E0E0"/>
<path d="M64.2639 146.448C65.1279 147.865 65.6161 149.472 66.4801 150.897C67.1123 151.888 67.8355 152.818 68.6401 153.675C70.9383 156.241 73.5433 158.587 75.457 161.451C77.4442 164.449 78.481 167.931 79.345 171.387C79.777 173.115 80.1442 174.843 80.5849 176.528C80.7448 177.264 80.9853 177.979 81.302 178.662C81.6562 179.358 82.1098 179.984 82.4209 180.701C82.5202 180.93 82.9652 180.831 82.8529 180.567C82.5461 179.85 82.0882 179.228 81.7383 178.532C81.3879 177.753 81.1228 176.937 80.9477 176.1C80.5157 174.403 80.1442 172.688 79.7165 170.99C78.9433 167.918 78.0188 164.842 76.3858 162.104C74.7529 159.365 72.4978 157.179 70.3378 154.889C68.9511 153.416 67.4607 151.956 66.5017 150.137C65.8148 148.841 65.3093 147.511 64.4626 146.31C64.3805 146.193 64.1948 146.275 64.2812 146.413L64.2639 146.448Z" fill="#E0E0E0"/>
<path d="M64.1905 147.848C64.3406 148.062 64.4504 148.302 64.5145 148.556C64.575 148.841 64.5145 150.159 63.9313 150.232L63.0673 149.8C64.3633 150.111 64.8126 150.751 64.4152 151.718L63.9443 152.193C63.9957 152.334 64.0181 152.483 64.0103 152.633C64.0024 152.782 63.9645 152.928 63.8987 153.063C63.833 153.197 63.7407 153.317 63.6275 153.415C63.5144 153.512 63.3826 153.586 63.2401 153.632C63.0889 153.705 63.2401 153.926 63.3956 153.887C65.8321 153.14 63.1235 150.465 62.4193 151.602C61.9873 152.293 63.1235 152.712 63.6073 152.66C63.8051 152.638 63.9965 152.577 64.1699 152.479C64.3432 152.382 64.4951 152.25 64.6162 152.092C64.7373 151.934 64.8252 151.754 64.8745 151.561C64.9239 151.368 64.9337 151.168 64.9033 150.971C64.8544 150.574 64.6691 150.206 64.3792 149.93C64.0893 149.654 63.7126 149.488 63.3136 149.459C62.7217 149.459 61.8577 149.925 62.4107 150.565C62.9636 151.204 64.0004 150.72 64.4195 150.258C65.1107 149.493 64.899 148.461 64.3115 147.731C64.2294 147.632 64.1128 147.731 64.1776 147.839L64.1905 147.848Z" fill="#E0E0E0"/>
<path d="M62.2076 111.287C61.9787 110.523 59.7625 108.898 59.4601 108.989C59.1577 109.08 58.3456 111.581 58.5961 112.376C58.6576 112.531 58.7593 112.666 58.8907 112.769C59.022 112.871 59.1783 112.937 59.3435 112.959C59.8009 113.043 60.2717 113.017 60.7171 112.884C61.1625 112.75 61.5698 112.512 61.9052 112.19C62.0325 112.081 62.128 111.939 62.182 111.781C62.2359 111.622 62.2463 111.451 62.212 111.287H62.2076Z" fill="#0066B2"/>
<path opacity="0.1" d="M62.2076 111.287C61.9787 110.523 59.7625 108.898 59.4601 108.989C59.1577 109.08 58.3456 111.581 58.5961 112.376C58.6576 112.531 58.7593 112.666 58.8907 112.769C59.022 112.871 59.1783 112.937 59.3435 112.959C59.8009 113.043 60.2717 113.017 60.7171 112.884C61.1625 112.75 61.5698 112.512 61.9052 112.19C62.0325 112.081 62.128 111.939 62.182 111.781C62.2359 111.622 62.2463 111.451 62.212 111.287H62.2076Z" fill="black"/>
<path d="M69.5261 86.0283C68.967 84.1915 67.7319 82.6353 66.0701 81.6737H66.0355C65.0541 81.1071 63.9667 80.7483 62.8408 80.6198C61.7149 80.4912 60.5746 80.5956 59.4907 80.9264C56.7259 81.7558 54.9072 84.5249 54.2765 87.4064C54.2234 87.6409 54.109 87.8571 53.945 88.0329C53.7809 88.2086 53.573 88.3376 53.3427 88.4066C53.1124 88.4756 52.8679 88.4822 52.6342 88.4256C52.4005 88.369 52.186 88.2513 52.0128 88.0846C49.8874 86.0196 46.8288 84.7107 44.0813 85.5445C42.9949 85.8665 41.9864 86.4085 41.1184 87.1368C40.2504 87.8651 39.5414 88.7642 39.0355 89.7781V89.8126C38.1866 91.5304 38.0184 93.5056 38.5646 95.3422C40.3358 101.235 47.7792 105.369 53.7062 107.801L59.9486 110.346L63.7546 104.786C67.3661 99.4721 71.28 91.9208 69.5261 86.0283Z" fill="#0066B2"/>
<path opacity="0.2" d="M69.5261 86.0283C68.967 84.1915 67.7319 82.6353 66.0701 81.6737H66.0355C65.0541 81.1071 63.9667 80.7483 62.8408 80.6198C61.7149 80.4912 60.5746 80.5956 59.4907 80.9264C56.7259 81.7558 54.9072 84.5249 54.2765 87.4064C54.2234 87.6409 54.109 87.8571 53.945 88.0329C53.7809 88.2086 53.573 88.3376 53.3427 88.4066C53.1124 88.4756 52.8679 88.4822 52.6342 88.4256C52.4005 88.369 52.186 88.2513 52.0128 88.0846C49.8874 86.0196 46.8288 84.7107 44.0813 85.5445C42.9949 85.8665 41.9864 86.4085 41.1184 87.1368C40.2504 87.8651 39.5414 88.7642 39.0355 89.7781V89.8126C38.1866 91.5304 38.0184 93.5056 38.5646 95.3422C40.3358 101.235 47.7792 105.369 53.7062 107.801L59.9486 110.346L63.7546 104.786C67.3661 99.4721 71.28 91.9208 69.5261 86.0283Z" fill="black"/>
<path opacity="0.1" d="M69.7805 91.4239C69.1714 92.8624 64.1645 102.656 56.8897 103.118C48.2194 103.645 38.4821 96.1629 39.0394 89.7996C38.1905 91.5174 38.0223 93.4926 38.5685 95.3292C40.3397 101.222 47.7831 105.356 53.7101 107.788L59.9525 110.333L63.7585 104.773C66.3289 100.997 69.0634 96.0765 69.7805 91.4239Z" fill="black"/>
<path d="M65.6636 146.219C65.2316 145.541 62.6828 144.538 62.4149 144.702C62.1471 144.867 61.9829 147.476 62.4409 148.202C62.5406 148.333 62.6725 148.436 62.8239 148.501C62.9753 148.566 63.141 148.591 63.3049 148.573C63.7678 148.536 64.2154 148.39 64.611 148.146C65.0067 147.903 65.3392 147.57 65.5815 147.173C65.6765 147.035 65.7329 146.873 65.745 146.705C65.7572 146.538 65.7246 146.37 65.6506 146.219H65.6636Z" fill="#0066B2"/>
<path opacity="0.3" d="M65.6636 146.219C65.2316 145.541 62.6828 144.538 62.4149 144.702C62.1471 144.867 61.9829 147.476 62.4409 148.202C62.5406 148.333 62.6725 148.436 62.8239 148.501C62.9753 148.566 63.141 148.591 63.3049 148.573C63.7678 148.536 64.2154 148.39 64.611 148.146C65.0067 147.903 65.3392 147.57 65.5815 147.173C65.6765 147.035 65.7329 146.873 65.745 146.705C65.7572 146.538 65.7246 146.37 65.6506 146.219H65.6636Z" fill="white"/>
<path d="M66.2513 119.932C65.2436 118.3 63.6554 117.11 61.8061 116.601H61.7715C60.6773 116.305 59.5338 116.237 58.4122 116.402C57.2907 116.567 56.2151 116.961 55.2526 117.56C52.7902 119.068 51.7448 122.208 51.8787 125.172C51.8878 125.413 51.8327 125.651 51.719 125.864C51.6053 126.076 51.4371 126.254 51.2316 126.38C51.0262 126.506 50.791 126.575 50.5501 126.58C50.3093 126.584 50.0715 126.525 49.8613 126.407C47.2693 124.956 44.0033 124.472 41.5496 125.975C40.5816 126.564 39.745 127.346 39.0918 128.272C38.4385 129.198 37.9826 130.249 37.7523 131.358V131.397C37.3682 133.275 37.7126 135.228 38.7157 136.862C41.9384 142.102 50.1939 144.206 56.5486 145.018L63.2317 145.882L65.4867 139.536C67.6121 133.488 69.4741 125.167 66.2513 119.932Z" fill="#0066B2"/>
<path opacity="0.5" d="M66.2513 119.932C65.2436 118.3 63.6554 117.11 61.8061 116.601H61.7715C60.6773 116.305 59.5338 116.237 58.4122 116.402C57.2907 116.567 56.2151 116.961 55.2526 117.56C52.7902 119.068 51.7448 122.208 51.8787 125.172C51.8878 125.413 51.8327 125.651 51.719 125.864C51.6053 126.076 51.4371 126.254 51.2316 126.38C51.0262 126.506 50.791 126.575 50.5501 126.58C50.3093 126.584 50.0715 126.525 49.8613 126.407C47.2693 124.956 44.0033 124.472 41.5496 125.975C40.5816 126.564 39.745 127.346 39.0918 128.272C38.4385 129.198 37.9826 130.249 37.7523 131.358V131.397C37.3682 133.275 37.7126 135.228 38.7157 136.862C41.9384 142.102 50.1939 144.206 56.5486 145.018L63.2317 145.882L65.4867 139.536C67.6121 133.488 69.4741 125.167 66.2513 119.932Z" fill="white"/>
<path opacity="0.05" d="M67.88 125.081C67.664 126.623 65.3528 137.389 58.4236 139.687C50.181 142.426 38.8496 137.691 37.7567 131.397C37.3726 133.275 37.717 135.228 38.72 136.862C41.9428 142.102 50.1983 144.206 56.553 145.018L63.236 145.882L65.4868 139.536C67.0031 135.216 68.3812 129.76 67.88 125.081Z" fill="black"/>
<path d="M75.4313 124.036C75.1591 123.284 72.8393 121.772 72.5671 121.876C72.295 121.979 71.5822 124.502 71.8716 125.301C71.9416 125.453 72.0503 125.584 72.1868 125.68C72.3233 125.776 72.4828 125.835 72.6492 125.85C73.1105 125.909 73.5792 125.858 74.0169 125.701C74.4546 125.544 74.849 125.286 75.1678 124.947C75.2892 124.832 75.3776 124.686 75.4239 124.525C75.4703 124.364 75.4728 124.194 75.4313 124.031V124.036Z" fill="#0066B2"/>
<path opacity="0.1" d="M75.4313 124.036C75.1591 123.284 72.8393 121.772 72.5671 121.876C72.295 121.979 71.5822 124.502 71.8716 125.301C71.9416 125.453 72.0503 125.584 72.1868 125.68C72.3233 125.776 72.4828 125.835 72.6492 125.85C73.1105 125.909 73.5792 125.858 74.0169 125.701C74.4546 125.544 74.849 125.286 75.1678 124.947C75.2892 124.832 75.3776 124.686 75.4239 124.525C75.4703 124.364 75.4728 124.194 75.4313 124.031V124.036Z" fill="black"/>
<path d="M81.4276 98.431C80.7784 96.628 79.4713 95.1372 77.7685 94.2579L77.734 94.2363C76.7253 93.721 75.6214 93.4191 74.4909 93.3492C73.3604 93.2793 72.2277 93.4431 71.1633 93.8302C68.4417 94.7979 66.7698 97.6534 66.286 100.578C66.2458 100.815 66.1432 101.038 65.9888 101.222C65.8343 101.407 65.6336 101.547 65.4072 101.628C65.1807 101.709 64.9368 101.729 64.7002 101.685C64.4637 101.641 64.2431 101.535 64.0612 101.377C61.8321 99.4203 58.7303 98.2712 56.0087 99.2475C54.9407 99.6247 53.9616 100.217 53.1323 100.989C52.3029 101.76 51.641 102.694 51.1876 103.732V103.771C50.4285 105.53 50.3622 107.511 51.0018 109.317C53.0754 115.111 60.7218 118.856 66.7655 120.981L73.1332 123.202L76.6453 117.452C79.9631 111.97 83.5012 104.224 81.4276 98.431Z" fill="#0066B2"/>
<path opacity="0.1" d="M81.9631 103.809C81.4274 105.274 76.9433 115.326 69.6943 116.147C61.0543 117.124 50.9498 110.151 51.1788 103.771C50.4197 105.53 50.3534 107.511 50.993 109.317C53.0666 115.111 60.713 118.856 66.7567 120.981L73.1244 123.202L76.6365 117.452C79.0082 113.542 81.4836 108.488 81.9631 103.809Z" fill="black"/>
<path d="M141.597 127.371C140.655 128.758 140.184 130.395 139.769 132.019C139.303 133.821 138.905 135.644 138.547 137.471C137.799 141.48 137.423 145.545 136.858 149.567C136.341 153.575 135.427 157.521 134.127 161.348C132.831 164.963 131.306 168.497 130.451 172.247C129.516 176.608 129.498 181.115 130.399 185.483C130.425 185.604 130.602 185.678 130.598 185.509C130.447 181.526 129.894 177.664 130.598 173.69C131.233 170.165 132.572 166.821 133.816 163.473C135.127 160.056 136.122 156.526 136.788 152.928C137.441 149.23 137.808 145.489 138.322 141.769C138.611 139.683 138.94 137.596 139.389 135.536C139.972 132.836 140.521 130.023 141.808 127.565C141.864 127.453 141.683 127.263 141.597 127.388V127.371Z" fill="#E0E0E0"/>
<path d="M142.949 128.736C141.998 128.913 141.113 129.79 141.566 130.814C141.92 131.609 143.104 131.825 143.873 131.626C144.387 131.488 144.867 130.982 144.378 130.546C143.73 129.967 142.862 130.477 142.59 131.146C142.288 131.902 142.443 132.874 143.307 133.134C143.709 133.25 144.901 133.185 144.841 132.55C144.789 131.984 144.046 132.067 143.726 132.356C142.832 133.172 143.964 134.218 144.664 134.602C144.776 134.667 144.789 134.477 144.715 134.425C143.851 133.812 144.69 134.131 143.851 132.801C143.07 132.598 142.754 132.226 142.91 131.682C142.898 131.608 142.906 131.533 142.933 131.463C142.959 131.394 143.004 131.332 143.061 131.285L142.728 131.25C141.945 131.005 141.68 130.54 141.933 129.855C142.181 129.425 142.58 129.103 143.052 128.952C143.156 128.909 143.052 128.714 142.953 128.736H142.949Z" fill="#E0E0E0"/>
<path d="M157.525 108.57C156.639 111.093 155.226 113.387 154.561 115.992C153.853 118.774 153.421 121.608 152.768 124.416C151.642 129.448 150.051 134.365 148.016 139.104C145.96 143.782 142.936 147.899 141.074 152.673C139.147 157.611 137.791 162.76 135.151 167.396C133.765 169.832 132.244 172.186 131.449 174.904C130.489 177.944 130.154 181.148 130.464 184.321C130.464 184.425 130.684 184.516 130.68 184.364C130.577 181.476 130.9 178.588 131.639 175.794C132.352 173.115 133.67 170.791 135.056 168.415C137.618 164.026 139.117 159.265 140.845 154.513C141.714 151.991 142.81 149.553 144.12 147.23C145.351 145.135 146.621 143.104 147.671 140.905C149.877 136.155 151.599 131.196 152.811 126.101C153.563 123.077 154.06 119.988 154.76 116.947C155.425 114.065 156.98 111.551 157.715 108.704C157.741 108.605 157.576 108.432 157.529 108.57H157.525Z" fill="#E0E0E0"/>
<path d="M151.2 149.692C149.589 152.643 146.69 154.444 144.521 156.933C142.253 159.525 140.672 162.639 139.091 165.685C138.253 167.301 137.415 168.916 136.46 170.467C135.505 172.018 134.408 173.448 133.471 174.999C131.423 178.39 130.546 182.114 130.101 186.019C130.071 186.274 130.533 186.347 130.563 186.088C130.995 182.235 131.859 178.533 133.894 175.176C135.566 172.411 137.432 169.836 138.94 166.968C140.4 164.182 141.778 161.326 143.627 158.76C145.113 156.704 147.018 155.088 148.811 153.334C149.881 152.352 150.76 151.181 151.403 149.878C151.455 149.757 151.26 149.567 151.187 149.701L151.2 149.692Z" fill="#E0E0E0"/>
<path d="M150.556 151.571C150.225 151.905 150.03 152.352 150.012 152.822C149.994 153.293 150.152 153.753 150.457 154.112C150.85 154.544 151.978 155.071 152.461 154.466C152.945 153.861 152.029 153.343 151.472 153.334C151.241 153.348 151.016 153.409 150.81 153.515C150.604 153.62 150.422 153.767 150.276 153.945C150.129 154.124 150.021 154.332 149.959 154.554C149.896 154.777 149.881 155.01 149.913 155.239C149.975 155.611 150.17 155.947 150.462 156.185C150.754 156.423 151.122 156.548 151.498 156.535C152.008 156.509 152.76 156.047 152.34 155.472C151.883 154.833 150.824 155.421 150.556 155.939C150.475 156.113 150.433 156.302 150.433 156.494C150.434 156.686 150.477 156.876 150.56 157.049C150.642 157.222 150.762 157.375 150.911 157.496C151.06 157.617 151.234 157.703 151.42 157.749C151.61 157.81 151.593 157.572 151.459 157.503C150.841 157.187 150.163 155.546 150.267 154.85C150.323 154.678 150.379 154.509 150.44 154.341C150.592 153.868 150.791 153.795 151.036 154.12C151.425 154.418 151.381 154.384 150.911 154.021C150.725 153.93 150.57 153.786 150.468 153.606C150.365 153.427 150.319 153.22 150.336 153.014C150.329 152.563 150.463 152.12 150.72 151.749C150.772 151.662 150.656 151.472 150.574 151.571H150.556Z" fill="#E0E0E0"/>
<path d="M155.792 108.752C155.999 107.978 158.172 106.294 158.475 106.376C158.777 106.458 159.663 108.92 159.438 109.741C159.379 109.897 159.281 110.035 159.152 110.141C159.023 110.247 158.868 110.318 158.704 110.346C158.247 110.442 157.774 110.429 157.324 110.308C156.873 110.186 156.458 109.959 156.112 109.646C155.982 109.54 155.883 109.401 155.824 109.244C155.766 109.087 155.75 108.917 155.779 108.752H155.792Z" fill="#0066B2"/>
<path opacity="0.1" d="M155.792 108.752C155.999 107.978 158.172 106.294 158.475 106.376C158.777 106.458 159.663 108.92 159.438 109.741C159.379 109.897 159.281 110.035 159.152 110.141C159.023 110.247 158.868 110.318 158.704 110.346C158.247 110.442 157.774 110.429 157.324 110.308C156.873 110.186 156.458 109.959 156.112 109.646C155.982 109.54 155.883 109.401 155.824 109.244C155.766 109.087 155.75 108.917 155.779 108.752H155.792Z" fill="black"/>
<path d="M147.8 83.6956C148.306 81.8471 149.493 80.2587 151.122 79.2503L151.157 79.2287C152.122 78.635 153.2 78.2459 154.322 78.0854C155.444 77.9249 156.587 77.9964 157.68 78.2956C160.471 79.0473 162.363 81.7516 163.071 84.646C163.131 84.879 163.251 85.0921 163.419 85.2635C163.588 85.4348 163.799 85.5582 164.031 85.6211C164.264 85.6839 164.508 85.684 164.74 85.6212C164.972 85.5584 165.184 85.435 165.352 85.2638C167.422 83.1383 170.424 81.7516 173.21 82.5119C174.306 82.8023 175.33 83.3154 176.218 84.0193C177.106 84.7233 177.84 85.6028 178.373 86.603V86.6375C179.269 88.3319 179.492 90.3027 178.995 92.1542C177.384 98.0898 170.057 102.427 164.195 105.019L158.026 107.728L154.069 102.272C150.336 97.079 146.189 89.6313 147.8 83.6956Z" fill="#0066B2"/>
<path opacity="0.2" d="M147.8 83.6956C148.306 81.8471 149.493 80.2587 151.122 79.2503L151.157 79.2287C152.122 78.635 153.2 78.2459 154.322 78.0854C155.444 77.9249 156.587 77.9964 157.68 78.2956C160.471 79.0473 162.363 81.7516 163.071 84.646C163.131 84.879 163.251 85.0921 163.419 85.2635C163.588 85.4348 163.799 85.5582 164.031 85.6211C164.264 85.6839 164.508 85.684 164.74 85.6212C164.972 85.5584 165.184 85.435 165.352 85.2638C167.422 83.1383 170.424 81.7516 173.21 82.5119C174.306 82.8023 175.33 83.3154 176.218 84.0193C177.106 84.7233 177.84 85.6028 178.373 86.603V86.6375C179.269 88.3319 179.492 90.3027 178.995 92.1542C177.384 98.0898 170.057 102.427 164.195 105.019L158.026 107.728L154.069 102.272C150.336 97.079 146.189 89.6313 147.8 83.6956Z" fill="black"/>
<path opacity="0.1" d="M147.692 89.0999C148.336 90.5169 153.597 100.189 160.889 100.436C169.573 100.734 179.103 92.9879 178.373 86.6418C179.269 88.3362 179.491 90.307 178.995 92.1585C177.383 98.0942 170.057 102.431 164.194 105.023L158.025 107.732L154.068 102.276C151.398 98.5737 148.534 93.7439 147.692 89.0999Z" fill="black"/>
<path d="M149.26 150.047C149.692 149.373 152.284 148.422 152.539 148.591C152.794 148.759 152.902 151.373 152.44 152.09C152.339 152.218 152.206 152.318 152.054 152.38C151.903 152.443 151.738 152.464 151.576 152.444C151.113 152.397 150.668 152.241 150.277 151.99C149.886 151.738 149.56 151.398 149.325 150.997C149.234 150.857 149.181 150.695 149.173 150.528C149.164 150.361 149.2 150.195 149.278 150.047H149.26Z" fill="#0066B2"/>
<path opacity="0.1" d="M149.26 150.047C149.692 149.373 152.284 148.422 152.539 148.591C152.794 148.759 152.902 151.373 152.44 152.09C152.339 152.218 152.206 152.318 152.054 152.38C151.903 152.443 151.738 152.464 151.576 152.444C151.113 152.397 150.668 152.241 150.277 151.99C149.886 151.738 149.56 151.398 149.325 150.997C149.234 150.857 149.181 150.695 149.173 150.528C149.164 150.361 149.2 150.195 149.278 150.047H149.26Z" fill="black"/>
<path d="M149.195 123.746C150.238 122.142 151.849 120.992 153.705 120.528H153.744C154.841 120.255 155.982 120.21 157.097 120.396C158.212 120.583 159.276 120.997 160.224 121.612C162.656 123.167 163.641 126.33 163.447 129.289C163.431 129.53 163.479 129.772 163.587 129.989C163.695 130.205 163.86 130.389 164.062 130.521C164.265 130.653 164.5 130.729 164.742 130.74C164.984 130.751 165.224 130.698 165.439 130.585C168.031 129.181 171.335 128.762 173.763 130.326C174.718 130.935 175.538 131.734 176.172 132.674C176.806 133.613 177.24 134.672 177.448 135.786V135.825C177.791 137.712 177.407 139.658 176.372 141.272C173.05 146.456 164.752 148.37 158.384 149.074L151.684 149.8L149.558 143.407C147.567 137.268 145.869 128.922 149.195 123.746Z" fill="#0066B2"/>
<path opacity="0.1" d="M147.463 128.865C147.653 130.412 149.748 141.221 156.63 143.657C164.838 146.556 176.239 142.046 177.461 135.773C177.804 137.66 177.42 139.606 176.386 141.221C173.063 146.405 164.765 148.318 158.397 149.023L151.697 149.748L149.571 143.355C148.141 139.017 146.88 133.531 147.463 128.865Z" fill="black"/>
<path d="M138.944 128.135C139.173 127.367 141.389 125.738 141.692 125.829C141.994 125.919 142.811 128.421 142.556 129.215C142.493 129.37 142.391 129.506 142.258 129.608C142.126 129.711 141.97 129.777 141.804 129.799C141.347 129.884 140.876 129.859 140.431 129.726C139.985 129.593 139.578 129.356 139.242 129.034C139.116 128.925 139.02 128.784 138.966 128.627C138.911 128.469 138.899 128.299 138.931 128.135H138.944Z" fill="#0066B2"/>
<path opacity="0.3" d="M138.944 128.135C139.173 127.367 141.389 125.738 141.692 125.829C141.994 125.919 142.811 128.421 142.556 129.215C142.493 129.37 142.391 129.506 142.258 129.608C142.126 129.711 141.97 129.777 141.804 129.799C141.347 129.884 140.876 129.859 140.431 129.726C139.985 129.593 139.578 129.356 139.242 129.034C139.116 128.925 139.02 128.784 138.966 128.627C138.911 128.469 138.899 128.299 138.931 128.135H138.944Z" fill="white"/>
<path d="M131.592 102.885C132.142 101.049 133.37 99.4912 135.026 98.5262L135.061 98.5046C136.04 97.9364 137.127 97.576 138.252 97.4459C139.377 97.3159 140.517 97.4189 141.601 97.7486C144.37 98.5694 146.193 101.334 146.828 104.229C146.882 104.463 146.997 104.679 147.162 104.855C147.326 105.03 147.534 105.159 147.765 105.228C147.995 105.297 148.24 105.304 148.474 105.247C148.708 105.191 148.922 105.073 149.096 104.907C151.213 102.833 154.254 101.52 157.019 102.349C158.106 102.669 159.116 103.209 159.986 103.936C160.856 104.663 161.566 105.561 162.073 106.574V106.609C162.925 108.326 163.097 110.301 162.553 112.138C160.79 118.031 153.356 122.182 147.433 124.623L141.195 127.181L137.376 121.617C133.773 116.329 129.829 108.782 131.592 102.885Z" fill="#0066B2"/>
<path opacity="0.5" d="M131.592 102.885C132.142 101.049 133.37 99.4912 135.026 98.5262L135.061 98.5046C136.04 97.9364 137.127 97.576 138.252 97.4459C139.377 97.3159 140.517 97.4189 141.601 97.7486C144.37 98.5694 146.193 101.334 146.828 104.229C146.882 104.463 146.997 104.679 147.162 104.855C147.326 105.03 147.534 105.159 147.765 105.228C147.995 105.297 148.24 105.304 148.474 105.247C148.708 105.191 148.922 105.073 149.096 104.907C151.213 102.833 154.254 101.52 157.019 102.349C158.106 102.669 159.116 103.209 159.986 103.936C160.856 104.663 161.566 105.561 162.073 106.574V106.609C162.925 108.326 163.097 110.301 162.553 112.138C160.79 118.031 153.356 122.182 147.433 124.623L141.195 127.181L137.376 121.617C133.773 116.329 129.829 108.782 131.592 102.885Z" fill="white"/>
<path opacity="0.05" d="M131.328 108.285C131.937 109.719 136.944 119.517 144.236 119.949C152.907 120.463 162.631 112.964 162.065 106.6C162.917 108.317 163.088 110.292 162.544 112.13C160.782 118.022 153.347 122.174 147.424 124.615L141.186 127.172L137.376 121.617C134.814 117.85 132.071 112.933 131.328 108.285Z" fill="black"/>
<path d="M97.3554 25.2894C96.6665 24.5772 95.7855 24.0804 94.8196 23.8595C93.2599 23.5075 91.6317 23.6138 90.131 24.1657C88.6303 24.7175 87.3211 25.6913 86.361 26.9699C84.6762 29.294 84.3436 32.3483 84.5812 35.2081C84.8188 38.068 85.5575 40.8673 85.7908 43.7272C86.0025 46.263 83.337 48.3452 81.5615 49.7752C81.2332 50.0344 80.8703 50.4188 81.0302 50.8033C81.0998 50.9176 81.1934 51.0155 81.3045 51.0901C81.4157 51.1646 81.5417 51.2142 81.6738 51.2353C83.158 51.6506 84.73 51.6334 86.2047 51.1857C87.6794 50.738 88.9956 49.8785 89.9985 48.7081L90.059 50.8681C90.6368 50.7679 91.1846 50.5383 91.6611 50.1964C92.1377 49.8545 92.5307 49.4092 92.8108 48.8939C93.3662 47.8598 93.6904 46.7175 93.7612 45.5459C94.1413 41.6579 92.9663 37.9686 92.867 34.1411C92.759 29.8211 94.2321 26.6113 96.9623 27.1038C98.0725 27.3025 98.6082 26.9267 97.8911 25.946C97.7284 25.7147 97.5494 25.4952 97.3554 25.2894Z" fill="#263238"/>
<path d="M96.4825 26.0626C96.34 25.8682 95.45 21.3797 97.4545 18.9303C99.459 16.4808 100.479 18.3341 100.284 20.4984C100.154 21.6663 99.74 22.7844 99.0771 23.7546C98.4143 24.7247 97.5233 25.5173 96.4825 26.0626Z" fill="#0066B2"/>
<path d="M97.1178 25.9633C96.9062 26.0756 92.3356 26.3175 90.2058 23.9847C88.0761 21.6519 90.0503 20.9132 92.1671 21.3927C93.3043 21.6893 94.3508 22.2615 95.2143 23.0587C96.0777 23.8558 96.7315 24.8534 97.1178 25.9633Z" fill="#0066B2"/>
<path d="M136.97 66.4417C135.341 64.813 131.479 60.2079 130.671 59.0977C129.656 57.7196 126.869 54.3975 125.185 53.149C123.5 51.9005 119.975 51.2785 117.137 51.4858C116.912 54.9418 120.044 60.3548 120.044 60.3548L127.142 67.4612C131.297 71.1764 136.386 73.3061 142.184 74.2263C141.644 72.6409 138.603 68.0703 136.97 66.4417Z" fill="#FFA8A7"/>
<path d="M127.142 67.4741C127.971 67.6296 130.706 67.4525 132.568 67.8024C134.429 68.1524 137.816 69.5823 139.6 72.036L127.142 67.4741Z" fill="#F28F8F"/>
<path d="M117.137 51.4987C118.109 51.4598 122.321 50.8377 124.913 52.7428C127.267 54.4708 129.034 56.9462 130.926 59.2704C131.868 60.4281 133.311 62.3203 133.311 62.3203C133.311 62.3203 131.393 65.4998 126.667 67.824L118.48 59.9529L117.137 51.4987Z" fill="#37474F"/>
<path d="M114.588 174.196C114.503 174.215 114.425 174.258 114.363 174.319C114.3 174.38 114.256 174.457 114.234 174.541C114.018 175.28 114.026 176.118 113.875 176.878C113.637 178.062 113.387 179.768 113.581 180.719C113.776 181.669 115.063 182.598 117.469 183.28C118.925 183.712 121.521 184.952 122.709 186.028C124.161 187.35 127.271 188.456 129.375 188.521C131.842 188.594 134.412 187.937 134.991 186.162C135.242 185.415 135.423 184.136 131.915 182.749C130.716 182.319 129.559 181.778 128.459 181.133C126.822 180.17 124.364 178.896 123.007 177.626C121.765 176.372 121.047 174.693 120.999 172.93C120.527 172.771 120.023 172.735 119.533 172.822C119.043 172.91 118.583 173.12 118.195 173.433C117.808 173.745 117.506 174.15 117.316 174.611C117.126 175.071 117.056 175.571 117.111 176.066C116.942 176.161 116.735 176.001 116.679 175.82C116.643 175.632 116.623 175.441 116.618 175.25C116.568 175.048 116.467 174.863 116.325 174.711C116.183 174.56 116.004 174.448 115.806 174.386C115.424 174.214 115.004 174.148 114.588 174.196Z" fill="#37474F"/>
<path d="M80.8485 174.273C81.0457 174.816 81.148 175.389 81.1509 175.967C81.2517 176.442 81.3196 176.925 81.3539 177.41C81.3539 177.842 81.4533 178.351 81.8507 178.503C82.0128 178.546 82.1841 178.542 82.3437 178.489C82.5033 178.437 82.6442 178.34 82.7493 178.209C82.9545 177.943 83.1449 177.666 83.3195 177.379C83.5302 177.095 83.8006 176.859 84.1118 176.69C84.423 176.52 84.7674 176.421 85.1209 176.399C85.8251 176.36 85.8769 176.425 86.3521 176.947L85.9461 177.919C84.5853 181.375 84.5032 184.468 85.3499 188.067C85.5227 188.801 86.5854 189.998 87.1686 190.581C87.5113 190.927 87.8764 191.251 88.2616 191.549C88.6029 191.817 88.9398 192.132 88.983 192.413C89.0443 192.824 88.97 193.244 88.7713 193.61C88.4684 194.094 87.9903 194.444 87.4365 194.586C85.365 195.33 83.0874 195.256 81.0688 194.379C80.2104 193.959 79.4685 193.334 78.9088 192.56C77.7251 190.499 77.859 188.538 77.8417 186.762C77.8115 182.844 77.1635 180.822 76.8481 178.861C76.4637 176.502 80.1097 173.919 80.8485 174.273Z" fill="#37474F"/>
<path d="M122.658 176.403C121.206 174.835 120.93 173.323 121.128 170.411C121.327 167.499 122.783 141.761 123.375 135.419C124.373 124.749 124.878 94.7634 123.992 87.3633L95.5452 89.601C93.4802 94.785 91.9596 101.122 92.2836 111.102C92.5255 118.714 92.3484 139.359 92.3484 139.359C92.3484 139.359 88.8924 142.383 86.3954 148.383C84.2052 153.667 81.6823 171.936 81.6823 171.936C81.4643 172.729 81.1856 173.505 80.8485 174.256C80.2267 175.011 79.8674 175.948 79.8247 176.926C79.8251 180.087 80.161 183.24 80.827 186.33C81.1726 187.929 82.1705 188.961 83.7645 189.596C84.1177 189.74 84.4987 189.802 84.8791 189.778C85.0771 189.778 85.2686 189.707 85.4191 189.579C85.6913 189.307 85.445 188.667 85.3932 188.348C85.3134 187.83 85.2658 187.307 85.2506 186.784C85.2204 185.756 85.2506 184.503 85.3197 183.479C85.4559 181.184 85.8265 178.908 86.4257 176.688L86.9786 175.37C86.9786 175.37 99.3252 150.474 102.833 144.409C105.619 139.657 107.473 121.159 109.451 111.054L112.786 135.216C112.786 135.216 111.322 139.579 110.937 142.918C110.419 147.398 113.586 164.95 114.532 171.206C114.704 172.365 114.717 173.542 114.57 174.705C114.903 177.409 116.938 178.243 119.037 179.777C120.078 180.537 124.653 183.328 127.444 183.889C129.699 184.347 131.431 182.995 130.036 182.127C127.414 180.33 124.109 177.984 122.658 176.403Z" fill="#FFA8A7"/>
<path d="M108.289 118.722C108.579 116.009 109.361 112.294 109.361 112.294L110.631 122.761L111.65 134.784C111.269 136.395 110.972 138.024 110.761 139.666C110.329 142.897 110.523 148.09 111.115 151.559C111.707 155.027 112.933 161.253 112.933 161.253C118.092 163.948 122.005 161.188 122.005 161.188C122.005 161.188 122.507 154.246 123.47 144.072C124.433 133.898 124.766 123.72 124.835 115.266C124.835 115.266 126.058 94.1846 122.498 79.9589C118.312 82.9051 105.879 83.4969 100.863 79.5269C100.863 79.5269 98.8503 82.8533 94.4611 90.2707C91.0051 96.0984 92.0247 105.455 91.9642 113.279C91.8735 125.349 91.9383 138.979 91.9383 138.979C90.3496 140.757 88.9294 142.679 87.696 144.72C85.4971 148.262 84.3696 156.138 84.3696 156.138C84.3696 156.138 86.5901 160.859 94.1717 161.063C94.1717 161.063 101.542 147.649 103.391 144.603C105.24 141.558 108 121.439 108.289 118.722Z" fill="#0066B2"/>
<path opacity="0.15" d="M109.361 112.294L112.13 101.641C112.13 101.641 117.435 101.088 121.561 98.064C121.561 98.064 120.697 101.952 113.409 103.105L110.264 113.564L110.631 122.783L109.361 112.294Z" fill="black"/>
<path d="M124.049 59.9271C120.593 55.3911 119.435 53.823 117.137 51.4988L104.544 50.9761C103.563 51.0625 97.9255 51.9697 97.9255 51.9697C96.5172 52.5918 94.9706 55.9398 95.3335 58.5922C95.7223 61.3614 96.042 64.1046 96.7332 67.4958C97.4244 70.887 98.5044 73.5222 98.7506 74.6108C99.2344 76.7924 99.4677 79.0604 98.3186 81.2463C95.934 85.8039 93.9986 88.7458 93.1821 92.5734C94.5427 92.199 95.7847 91.4821 96.7893 90.4911C98.3273 89.018 99.2517 88.3311 100.483 86.6031C100.483 86.6031 100.608 89.1951 103.183 92.5906C103.839 93.4642 104.593 94.2599 105.429 94.9623C110.052 98.8503 123.953 100.514 124.407 88.3873C124.407 88.3873 123.046 82.8534 122.778 79.5615C122.511 76.2697 122.454 74.2868 122.485 73.4401C128.148 69.375 126.299 62.869 124.049 59.9271Z" fill="#455A64"/>
<path d="M71.915 70.563C73.44 67.9148 75.4142 67.2409 77.9285 65.3531C80.4427 63.4652 85.6138 59.344 88.7976 57.1796C92.4134 54.7216 95.256 52.5184 97.9517 52.54C97.9517 52.54 98.3837 52.4579 99.1483 54.6006C99.913 56.7433 99.8352 61.9921 98.0942 63.3875C96.3533 64.7828 82.2528 72.5977 82.2528 72.5977L71.915 70.563Z" fill="#FFA8A7"/>
<path d="M89.022 68.8004L88.0025 66.783C87.0434 67.4353 85.4753 68.0314 82.9265 68.1783C80.3777 68.3252 75.8157 68.2215 73.2885 69.7378C73.1254 69.8444 72.9974 69.9968 72.9205 70.1759C72.8437 70.3549 72.8214 70.5527 72.8565 70.7444L82.2612 72.5977C82.2612 72.5977 85.4709 70.8135 89.022 68.8004Z" fill="#F28F8F"/>
<path d="M97.9211 51.948C96.3789 51.948 94.2319 52.8984 92.3786 54.2635C90.089 55.9526 84.0669 60.5837 84.0669 60.5837C84.0669 60.5837 85.2851 67.0637 89.4583 68.7139C89.4583 68.7139 97.2731 64.3939 97.8952 63.923C98.5173 63.4522 99.6016 62.4154 99.8003 58.739C99.9991 55.0627 98.7549 53.3822 97.9211 51.948Z" fill="#37474F"/>
<path d="M114.882 71.4658C114.882 71.4658 111.456 74.4898 107.253 73.2975C105.644 72.8729 104.228 71.9148 103.235 70.5802C103.19 70.5255 103.128 70.4884 103.058 70.4756C102.988 70.4628 102.917 70.4752 102.855 70.5105C102.794 70.5458 102.747 70.6018 102.723 70.6684C102.7 70.7349 102.7 70.8078 102.725 70.874C103.317 72.2607 104.6 73.8764 107.374 74.546C112.475 75.7685 114.882 71.4658 114.882 71.4658Z" fill="#37474F"/>
<path d="M101.481 21.9413C105.801 20.2349 108.95 20.5589 111.093 21.0341C120.022 17.0035 127.345 28.944 119.353 34.8581C119.353 34.8581 118.981 44.1547 111.909 46.3838L104.133 48.0038C102.958 44.7768 96.1672 43.727 94.3442 36.5299C92.2187 29.7259 96.88 23.76 101.481 21.9413Z" fill="#263238"/>
<path d="M115.227 25.3022C116.826 25.9373 119.215 29.3458 120.239 37.1088C121.103 43.6882 119.232 45.6408 118.238 46.2715C117.245 46.9022 115.141 46.9411 113.089 46.9195L113.707 51.4598C113.707 51.4598 115.811 52.7342 116.243 54.9504C116.592 56.7518 111.72 57.8923 108.393 55.8878C106.836 54.9935 105.555 53.6871 104.691 52.1122L103.447 42.6557C103.447 42.6557 102.38 44.0338 100.423 43.0272C98.3059 41.9472 97.8523 39.4934 98.9367 37.9901C100.021 36.4867 102.57 36.7848 103.365 38.5085C103.365 38.5085 106.177 37.8864 109.879 34.668C113.871 31.1818 114.515 28.2312 115.227 25.3022Z" fill="#FFA8A7"/>
<path d="M111.456 36.6294C111.482 36.7906 111.46 36.9559 111.394 37.1048C111.327 37.2537 111.217 37.3797 111.079 37.4672C110.941 37.5546 110.781 37.5996 110.618 37.5965C110.454 37.5935 110.296 37.5426 110.161 37.4501C110.026 37.3577 109.922 37.2277 109.86 37.0764C109.799 36.9251 109.783 36.7591 109.816 36.599C109.848 36.4389 109.926 36.2917 110.041 36.1758C110.156 36.0598 110.303 35.9802 110.462 35.9468C110.684 35.9087 110.912 35.9587 111.098 36.0862C111.284 36.2137 111.412 36.4086 111.456 36.6294Z" fill="#263238"/>
<path d="M112.169 41.1309L115.435 41.7616C115.403 41.9793 115.329 42.1884 115.214 42.3763C115.1 42.5642 114.949 42.7271 114.77 42.855C114.591 42.983 114.389 43.0734 114.174 43.1208C113.959 43.1683 113.737 43.1717 113.521 43.131C113.079 43.0401 112.69 42.78 112.438 42.4063C112.185 42.0325 112.088 41.5748 112.169 41.1309Z" fill="#B16668"/>
<path d="M113.521 43.1309C113.787 43.1823 114.063 43.1629 114.32 43.0747C114.297 42.8457 114.216 42.6262 114.087 42.4362C113.957 42.2462 113.781 42.0917 113.576 41.9869C113.372 41.8821 113.144 41.8303 112.914 41.8361C112.683 41.842 112.459 41.9055 112.259 42.0206C112.354 42.2997 112.521 42.549 112.742 42.7438C112.963 42.9385 113.232 43.072 113.521 43.1309Z" fill="#F28F8F"/>
<path d="M118.294 33.1345L116.445 32.2359C116.498 32.1125 116.575 32.0011 116.672 31.9086C116.769 31.8161 116.884 31.7444 117.01 31.6979C117.136 31.6513 117.27 31.631 117.404 31.6381C117.538 31.6452 117.669 31.6796 117.789 31.7391C118.035 31.8631 118.225 32.0767 118.319 32.3362C118.413 32.5957 118.404 32.8813 118.294 33.1345Z" fill="#263238"/>
<path d="M118.212 35.1303C118.24 35.2926 118.219 35.4593 118.152 35.6096C118.085 35.7599 117.975 35.8873 117.836 35.9757C117.698 36.0642 117.536 36.1098 117.372 36.107C117.207 36.1042 117.047 36.053 116.911 35.9598C116.776 35.8667 116.671 35.7357 116.609 35.5831C116.547 35.4306 116.532 35.2633 116.565 35.102C116.597 34.9408 116.677 34.7928 116.793 34.6765C116.91 34.5601 117.058 34.4806 117.219 34.4478C117.441 34.4097 117.669 34.4597 117.854 34.5872C118.04 34.7146 118.168 34.9095 118.212 35.1303Z" fill="#263238"/>
<path d="M114.19 35.0049L115.093 39.947L117.582 38.733L114.19 35.0049Z" fill="#F28F8F"/>
<path d="M113.089 46.9196C110.929 46.9714 106.406 46.3968 105.464 44.7898C105.87 45.6156 106.52 46.297 107.326 46.7424C108.795 47.6496 113.266 48.2328 113.266 48.2328L113.089 46.9196Z" fill="#F28F8F"/>
<path d="M142.184 74.2393C138.538 71.1505 137.406 69.3749 127.142 67.4741C127.142 67.4741 121.495 65.7461 120.796 65.2493C120.096 64.7525 118.67 64.705 117.638 64.3249C116.605 63.9447 112.86 62.5969 111.879 61.9359C110.898 61.2749 110.471 60.8473 108.786 60.7393C107.101 60.6313 104.825 60.3591 104.28 60.4153C103.736 60.4714 103.248 61.6637 102.703 62.5753C102.159 63.4868 101.887 63.625 102.31 65.4567C102.587 66.6663 102.976 66.8089 102.976 66.8089C103.269 66.9341 103.68 66.3769 103.68 66.3769C104.272 66.5367 104.354 65.8714 104.354 65.8714C104.816 65.8714 105.693 64.3681 105.693 64.3681L106.578 64.1477C107.352 64.3681 108.985 65.7116 108.44 66.9557C107.896 68.1999 105.939 68.6837 104.777 69.5477C103.615 70.4117 103.481 72.2996 104.008 72.5717C104.319 72.7273 104.704 72.1009 105.736 71.3967C106.666 70.8045 107.672 70.3395 108.725 70.0143C111.024 69.3101 112.985 69.8026 114.942 69.6946C116.899 69.5866 117.495 68.8306 124.109 72.9562C126.835 74.654 129.159 76.1617 131.397 76.9781C133.933 77.8415 136.589 78.2965 139.268 78.326C142.404 78.4988 142.728 75.8377 142.184 74.2393Z" fill="#FFA8A7"/>
<path d="M116.324 68.2561C115.416 68.0373 114.566 67.6247 113.832 67.0465C113.028 66.4676 112.156 65.3703 111.521 64.7915C110.886 64.2126 109.996 64.7915 109.482 64.7915C109.322 64.7903 109.165 64.7503 109.024 64.6751C108.884 64.5998 108.763 64.4915 108.674 64.3595C109.494 64.1953 109.482 63.7115 109.482 63.7115C108.991 63.9326 108.438 63.9709 107.922 63.8195C107.576 63.6337 107.559 63.0764 107.559 63.0764C107.52 63.543 107.054 63.7849 106.462 63.8583C105.87 63.9318 105.693 63.6553 105.693 63.6553C105.745 63.8915 105.745 64.1363 105.693 64.3724L106.578 64.1521C106.689 64.1859 106.796 64.2308 106.898 64.286C107.723 64.718 108.916 65.8715 108.44 66.9601C108.217 67.3982 107.874 67.7637 107.451 68.0142C109.577 67.4007 109.974 66.0183 110.514 65.811C110.894 65.6641 111.413 65.7721 112.549 66.7182C113.603 67.6341 114.93 68.1749 116.324 68.2561Z" fill="#F28F8F"/>
<path d="M109.045 62.1476C108.21 62.1264 107.374 62.1611 106.544 62.2513C106.185 62.3204 104.885 63.2363 104.656 63.3788C104.427 63.5214 104.319 64.42 104.129 64.9988C103.939 65.5777 104.021 65.6857 104.263 65.8628C104.263 65.8628 103.719 65.7894 103.965 64.947C104.211 64.1046 104.285 63.314 104.557 63.0937C105.169 62.6734 105.82 62.3118 106.501 62.0137C106.773 61.9489 109.045 62.1476 109.045 62.1476Z" fill="#F28F8F"/>
<path d="M105.693 60.6184C105.218 60.5449 105.075 60.7739 104.712 61.1886C104.163 61.8775 103.655 62.5988 103.192 63.3486C103.13 63.7074 103.13 64.0741 103.192 64.4329C103.192 64.8347 103.243 65.7851 103.68 66.3899C103.68 66.3899 103.472 66.3596 103.248 65.7851C103.08 65.1471 102.985 64.4919 102.967 63.8324C102.924 63.4695 102.967 63.3616 103.304 62.8518C103.743 62.1889 104.224 61.554 104.743 60.951C105.088 60.5967 105.213 60.4801 105.693 60.6184Z" fill="#F28F8F"/>
<path d="M118.247 69.8847C117.919 69.4095 117.767 68.8355 117.815 68.2604C117.815 67.4741 117.75 67.3013 117.607 67.9105C117.465 68.5196 116.709 69.578 116.083 69.5953C116.816 69.537 117.554 69.6357 118.247 69.8847Z" fill="#F28F8F"/>
<path d="M71.9149 70.563C70.3899 73.2111 69.8975 75.2718 70.8824 76.395C71.6427 77.259 73.0424 77.1467 75.0123 77.259C76.9088 77.354 80.4167 76.9307 82.8661 75.5526C86.4387 73.5395 88.3179 72.4551 91.2426 72.1916C94.0203 71.9454 95.2429 71.2758 96.7765 71.1375C98.5823 70.9777 100.487 70.9259 101.736 71.5695C102.311 71.8729 102.861 72.221 103.382 72.6107C103.511 72.6711 103.697 72.5372 103.736 72.1311C103.763 71.66 103.655 71.1911 103.425 70.779C102.937 69.8934 101.507 69.3318 99.969 69.051C98.4311 68.7702 97.3251 68.0099 97.0962 67.094C96.9223 66.3805 97.0033 65.6287 97.3251 64.9686C97.6233 65.0562 97.9262 65.1268 98.2323 65.1803C98.6536 65.2348 99.0777 65.2651 99.5024 65.271C99.8022 65.6722 100.149 66.0362 100.535 66.3553C100.898 66.6059 101.239 66.7139 101.399 66.5583C101.591 66.8786 101.901 67.11 102.263 67.202C102.751 67.2582 102.846 67.0163 102.846 67.0163C102.846 67.0163 102.686 66.0788 102.639 65.6857C102.591 65.2926 102.596 64.6835 102.539 64.3897C102.483 64.0959 102.224 63.8886 101.49 63.0937C100.755 62.2988 100.418 61.5947 100.064 61.5212C99.7239 61.4903 99.381 61.5151 99.0488 61.5947C98.806 61.5509 98.5573 61.5509 98.3144 61.5947C97.7312 61.6508 96.9147 61.7459 95.9773 61.8107C95.0399 61.8755 93.9512 61.8409 93.6877 62.1044C93.4242 62.3679 93.0094 63.0073 92.4262 63.6812C91.5987 64.5831 90.7203 65.4369 89.7954 66.2387C89.3271 66.6334 88.8367 67.0012 88.3266 67.3403C87.7919 67.7045 87.2107 67.9951 86.5986 68.2043C85.5531 68.511 84.0066 68.5715 82.0064 68.7399C78.6239 68.9991 73.3189 68.943 71.9149 70.563Z" fill="#FFA8A7"/>
<path d="M99.1483 68.8176C98.0596 68.4504 97.2907 67.8153 97.1092 67.0896C96.9354 66.376 97.0164 65.6242 97.3382 64.9641C97.2161 65.0924 97.0694 65.1949 96.9068 65.2654C96.7443 65.3359 96.5693 65.373 96.3921 65.3745C95.8352 65.3703 95.2878 65.2294 94.798 64.9641C94.9184 65.1559 95.0802 65.3184 95.2716 65.4395C95.463 65.5606 95.6791 65.6373 95.904 65.6639C95.3415 65.9571 94.7528 66.1972 94.1457 66.3811C93.1305 66.6878 92.9361 67.6771 92.5732 68.7052C92.2104 69.7334 92.1153 70.7659 90.9316 71.3923C90.9316 71.3923 92.0937 71.2151 93.178 69.7463C94.2624 68.2775 94.9881 67.8672 96.0984 67.8456C97.2086 67.824 97.9214 68.6793 99.1224 68.8176H99.1483Z" fill="#F28F8F"/>
<path d="M101.429 66.5279C101.68 66.3076 101.788 66.2342 101.477 65.8367C101.166 65.4393 100.721 64.8431 100.496 64.5926C100.189 64.2962 99.8262 64.0629 99.4291 63.9057C98.8805 63.6335 98.6558 63.4089 98.0942 63.37C98.4114 63.3478 98.7293 63.3995 99.023 63.5212C99.4032 63.7199 100.319 64.1994 100.526 64.3377C100.868 64.6795 101.17 65.0576 101.429 65.4652C101.58 65.6898 101.892 66.083 101.861 66.2212C101.831 66.3594 101.429 66.5279 101.429 66.5279Z" fill="#F28F8F"/>
<path d="M101.429 66.528C101.553 66.6365 101.704 66.7097 101.866 66.7401C102.028 66.7705 102.195 66.7569 102.349 66.7008C102.648 66.528 102.622 66.394 102.444 65.9923C102.273 65.5493 102.129 65.0963 102.012 64.6358C101.969 64.245 101.781 63.8846 101.485 63.6249C100.816 63.1022 99.252 61.7889 99.0576 61.5686C99.0576 61.5686 100.613 62.735 100.889 62.9208C101.364 63.2404 101.982 63.6552 102.06 63.9619C102.138 64.2686 102.457 65.4955 102.518 65.6553C102.664 65.9195 102.739 66.2174 102.734 66.5193C102.626 66.7612 102.285 67.2408 101.429 66.528Z" fill="#F28F8F"/>
<path d="M91.0959 72.2001C90.1973 72.1267 89.7394 71.4485 89.3463 71.2281C88.9532 71.0078 89.3938 71.6212 89.3463 72.0057C89.3064 72.2425 89.1763 72.4546 88.9834 72.5976C89.673 72.4029 90.3785 72.2699 91.0916 72.2001H91.0959Z" fill="#F28F8F"/>
</svg>
